# xmcd
# 
# Track frame offsets:
#     150
#     11381
#     24039
#     35026
#     50999
#     60990
#     70309
#     81979
#     94013
#     102800
#     114006
#     124773
#     130353
#     151588
#     163665
# 
# Disc length: 2377
# 
# Revision: 1
# Processed by: cddbd v1.5.1PL2 Copyright (c) Steve Scherf et al.
# Submitted via: BonkEnc v1.0beta3
# 
DISCID=b409470f
DTITLE=Johnny Cash - I Walk The Line  (Ireland On Sunday)
DYEAR=2006
DGENRE=Country
TTITLE0=I Walk The Line (Live)
TTITLE1=Folsom Prison Blues
TTITLE2=Cry, Cry, Cry
TTITLE3=A Boy Named Sue (Live)
TTITLE4=Hey Porter
TTITLE5=Luther Played The Boogie
TTITLE6=So Doggone Lonesome
TTITLE7=Goodnight Irene
TTITLE8=Two Timing Women
TTITLE9=Mean Eyed Cat
TTITLE10=Wide Open Road
TTITLE11=My Treasure
TTITLE12=Bonus: The Sunwalker's - Flying In Space
TTITLE13=Bonus: The Takeoff's - Take Me Home
TTITLE14=Bonus: Hospital - Light Up
EXTD=
EXTT0=
EXTT1=
EXTT2=
EXTT3=
EXTT4=
EXTT5=
EXTT6=
EXTT7=
EXTT8=
EXTT9=
EXTT10=
EXTT11=
EXTT12=
EXTT13=
EXTT14=
PLAYORDER=
